<?xml version="1.0" standalone="no"?>
<!DOCTYPE svg PUBLIC "-//W3C//DTD SVG 20010904//EN"
 "http://www.w3.org/TR/2001/REC-SVG-20010904/DTD/svg10.dtd">
<svg version="1.0" xmlns="http://www.w3.org/2000/svg"
 width="15.000000pt" height="15.000000pt" viewBox="0 0 512.000000 512.000000"
 preserveAspectRatio="xMidYMid meet">

<g transform="translate(0.000000,512.000000) scale(0.100000,-0.100000)"
fill="#eef8ff" stroke="none">
<path d="M1610 5109 c-235 -23 -481 -101 -695 -221 -272 -153 -529 -409 -683
-683 -250 -443 -298 -981 -133 -1460 134 -387 391 -709 748 -938 369 -236 863
-323 1313 -231 199 41 436 140 609 254 l94 62 140 -140 139 -139 -33 -58 c-28
-50 -33 -69 -33 -124 0 -53 5 -76 28 -117 37 -68 1232 -1262 1291 -1290 53
-25 166 -26 215 0 48 25 456 432 483 481 29 54 30 163 3 220 -28 59 -1222
1254 -1290 1291 -41 23 -64 28 -117 28 -55 0 -74 -5 -124 -33 l-58 -33 -139
139 -140 140 62 94 c80 121 159 285 203 424 70 218 92 386 84 625 -17 465
-193 866 -524 1197 -377 377 -904 564 -1443 512z m425 -524 c365 -76 661 -283
853 -596 221 -362 243 -826 58 -1207 -69 -141 -110 -194 -282 -362 -123 -120
-177 -165 -238 -200 -519 -291 -1143 -202 -1552 221 -175 182 -284 388 -335
632 -25 119 -30 339 -11 453 94 563 526 987 1087 1070 112 17 312 11 420 -11z"/>
</g>
</svg>
